Sex, Drogen und die erste Liebe: Die Erlebnisse dieser Teenagerclique aus Bristol sind in Großbritannien längst "talk of the town". "Skins" wagt einen ungeschönten Blick auf den Alltag ganz normaler Jugendlicher. Der prämierte Serienhit ist alles andere als eine gewöhnliche Teenie-Soap: britisch, ironisch und realistisch.
 
http://thetvdb.com/?tab=series&id=79773&lid=14

Technische Infos S01E01:
General
Unique ID : 255134921662515133788134399678914049553 (0xBFF132D41953FF92A9BE0C0EBB893611)
Complete name : Skins - S01E01 - Tony.mkv
Format : Matroska
File size : 1.37 GiB
Duration : 45mn 45s
Overall bit rate : 4 276 Kbps
Encoded date : UTC 2011-01-08 15:16:52
Writing application : mkvmerge v4.4.0 ('Die Wiederkehr') gebaut am Oct 31 2010 21:52:48
Writing library : libebml v1.0.0 + libmatroska v1.0.0

Video
ID : 1
Format : AVC
Format/Info : Advanced Video Codec
Format profile : High@L4.1
Format settings, CABAC : Yes
Format settings, ReFrames : 5 frames
Codec ID : V_MPEG4/ISO/AVC
Duration : 45mn 45s
Bit rate : 3 505 Kbps
Width : 1 280 pixels
Height : 720 pixels
Display aspect ratio : 16:9
Frame rate : 25.000 fps
Color space : YUV
Chroma subsampling : 4:2:0
Bit depth : 8 bits
Scan type : Progressive
Bits/(Pixel*Frame) : 0.152
Stream size : 1.09 GiB (80%)
Writing library : x264 core 112 r1834 a51816a
Encoding settings : cabac=1 / ref=5 / deblock=1:0:0 / analyse=0x3:0x113 / me=umh / subme=7 / psy=1 / psy_rd=1.00:0.00 / mixed_ref=1 / me_range=16 / chroma_me=1 / trellis=1 / 8x8dct=1 / cqm=0 / deadzone=21,11 / fast_pskip=0 / chroma_qp_offset=-2 / threads=6 / sliced_threads=0 / nr=0 / decimate=1 / interlaced=0 / constrained_intra=0 / bframes=3 / b_pyramid=2 / b_adapt=1 / b_bias=0 / direct=1 / weightb=1 / open_gop=0 / weightp=2 / keyint=250 / keyint_min=25 / scenecut=40 / intra_refresh=0 / rc_lookahead=40 / rc=2pass / mbtree=1 / bitrate=3505 / ratetol=1.0 / qcomp=0.60 / qpmin=0 / qpmax=51 / qpstep=4 / cplxblur=20.0 / qblur=0.5 / ip_ratio=1.40 / aq=1:1.00

Audio #1
ID : 2
Format : AC-3
Format/Info : Audio Coding 3
Mode extension : CM (complete main)
Codec ID : A_AC3
Duration : 45mn 45s
Bit rate mode : Constant
Bit rate : 384 Kbps
Channel(s) : 2 channels
Channel positions : Front: L R
Sampling rate : 48.0 KHz
Bit depth : 16 bits
Compression mode : Lossy
Delay relative to video : 6ms
Stream size : 126 MiB (9%)

Audio #2
ID : 3
Format : AC-3
Format/Info : Audio Coding 3
Mode extension : CM (complete main)
Codec ID : A_AC3
Duration : 45mn 45s
Bit rate mode : Constant
Bit rate : 384 Kbps
Channel(s) : 2 channels
Channel positions : Front: L R
Sampling rate : 48.0 KHz
Bit depth : 16 bits
Compression mode : Lossy
Delay relative to video : 7ms
Stream size : 126 MiB (9%)
Language : English